<svg xmlns="http://www.w3.org/2000/svg" xmlns:xlink="http://www.w3.org/1999/xlink" width="298" zoomAndPan="magnify" viewBox="0 0 223.5 218.249992" height="291" preserveAspectRatio="xMidYMid meet" version="1.0"><defs><clipPath id="ff1d5ca1c8"><path d="M 0.132812 0 L 222.867188 0 L 222.867188 217.503906 L 0.132812 217.503906 Z M 0.132812 0 " clip-rule="nonzero"/></clipPath><clipPath id="34a934a338"><path d="M 177.152344 116.285156 L 180.144531 116.285156 L 180.144531 164.867188 L 177.152344 164.867188 Z M 177.152344 116.285156 " clip-rule="nonzero"/></clipPath><clipPath id="6dee7d337b"><path d="M 162.777344 86.703125 L 194.917969 86.703125 L 194.917969 118.84375 L 162.777344 118.84375 Z M 162.777344 86.703125 " clip-rule="nonzero"/></clipPath><clipPath id="4381c781cb"><path d="M 155 162 L 180 162 L 180 203 L 155 203 Z M 155 162 " clip-rule="nonzero"/></clipPath><clipPath id="ee6f61eaea"><path d="M 155.019531 201.9375 L 177.910156 161.648438 L 180.511719 163.125 L 157.621094 203.417969 Z M 155.019531 201.9375 " clip-rule="nonzero"/></clipPath><clipPath id="9fb9550ae9"><path d="M 155.019531 201.9375 L 177.910156 161.648438 L 180.511719 163.125 L 157.621094 203.417969 Z M 155.019531 201.9375 " clip-rule="nonzero"/></clipPath><clipPath id="03c4f4b498"><path d="M 155.019531 201.9375 L 177.910156 161.648438 L 180.511719 163.125 L 157.621094 203.417969 Z M 155.019531 201.9375 " clip-rule="nonzero"/></clipPath><clipPath id="c9627453bc"><path d="M 179 161 L 201 161 L 201 204 L 179 204 Z M 179 161 " clip-rule="nonzero"/></clipPath><clipPath id="000843bf2b"><path d="M 198.136719 204.171875 L 178.597656 162.148438 L 181.308594 160.890625 L 200.847656 202.910156 Z M 198.136719 204.171875 " clip-rule="nonzero"/></clipPath><clipPath id="fdb753b446"><path d="M 198.136719 204.171875 L 178.597656 162.148438 L 181.308594 160.890625 L 200.847656 202.910156 Z M 198.136719 204.171875 " clip-rule="nonzero"/></clipPath><clipPath id="8127e4b36c"><path d="M 198.136719 204.171875 L 178.597656 162.148438 L 181.308594 160.890625 L 200.847656 202.910156 Z M 198.136719 204.171875 " clip-rule="nonzero"/></clipPath><clipPath id="dad59c407c"><path d="M 140 111 L 178 111 L 178 140 L 140 140 Z M 140 111 " clip-rule="nonzero"/></clipPath><clipPath id="7f47c14831"><path d="M 177.003906 140.433594 L 139.265625 113.539062 L 141 111.105469 L 178.738281 138 Z M 177.003906 140.433594 " clip-rule="nonzero"/></clipPath><clipPath id="f0436316c2"><path d="M 177.003906 140.433594 L 139.265625 113.539062 L 141 111.105469 L 178.738281 138 Z M 177.003906 140.433594 " clip-rule="nonzero"/></clipPath><clipPath id="101f7e1aee"><path d="M 177.003906 140.433594 L 139.265625 113.539062 L 141 111.105469 L 178.738281 138 Z M 177.003906 140.433594 " clip-rule="nonzero"/></clipPath><clipPath id="e7e2716c48"><path d="M 179 105 L 212 105 L 212 140 L 179 140 Z M 179 105 " clip-rule="nonzero"/></clipPath><clipPath id="7b3f2747b4"><path d="M 178.75 138.367188 L 210.667969 104.769531 L 212.835938 106.828125 L 180.917969 140.425781 Z M 178.75 138.367188 " clip-rule="nonzero"/></clipPath><clipPath id="a59ea0e44c"><path d="M 178.75 138.367188 L 210.667969 104.769531 L 212.835938 106.828125 L 180.917969 140.425781 Z M 178.75 138.367188 " clip-rule="nonzero"/></clipPath><clipPath id="21bc1edf7f"><path d="M 178.75 138.367188 L 210.667969 104.769531 L 212.835938 106.828125 L 180.917969 140.425781 Z M 178.75 138.367188 " clip-rule="nonzero"/></clipPath><clipPath id="13c9eb668a"><path d="M 181 93.789062 L 183 93.789062 L 183 99 L 181 99 Z M 181 93.789062 " clip-rule="nonzero"/></clipPath><clipPath id="c5885b1a89"><path d="M 167.394531 98 L 189.816406 98 L 189.816406 111.730469 L 167.394531 111.730469 Z M 167.394531 98 " clip-rule="nonzero"/></clipPath></defs><g clip-path="url(#ff1d5ca1c8)"><path fill="#ffffff" d="M 0.132812 0 L 222.867188 0 L 222.867188 217.503906 L 0.132812 217.503906 Z M 0.132812 0 " fill-opacity="1" fill-rule="nonzero"/><path fill="#ffffff" d="M 0.132812 0 L 222.867188 0 L 222.867188 217.503906 L 0.132812 217.503906 Z M 0.132812 0 " fill-opacity="1" fill-rule="nonzero"/></g><g clip-path="url(#34a934a338)"><path fill="#000000" d="M 177.152344 118.386719 L 177.152344 162.765625 C 177.152344 163.640625 177.824219 164.351562 178.648438 164.351562 C 179.472656 164.351562 180.144531 163.640625 180.144531 162.765625 L 180.144531 118.386719 C 180.144531 117.511719 179.472656 116.800781 178.648438 116.800781 C 177.824219 116.800781 177.152344 117.511719 177.152344 118.386719 Z M 177.152344 118.386719 " fill-opacity="1" fill-rule="nonzero"/></g><g clip-path="url(#6dee7d337b)"><path fill="#000000" d="M 178.847656 86.703125 C 169.96875 86.703125 162.777344 93.894531 162.777344 102.773438 C 162.777344 111.652344 169.96875 118.84375 178.847656 118.84375 C 187.726562 118.84375 194.917969 111.652344 194.917969 102.773438 C 194.917969 93.894531 187.726562 86.703125 178.847656 86.703125 Z M 178.847656 115.628906 C 171.746094 115.628906 165.992188 109.875 165.992188 102.773438 C 165.992188 95.671875 171.746094 89.917969 178.847656 89.917969 C 185.949219 89.917969 191.703125 95.671875 191.703125 102.773438 C 191.703125 109.875 185.949219 115.628906 178.847656 115.628906 Z M 178.847656 115.628906 " fill-opacity="1" fill-rule="nonzero"/></g><g clip-path="url(#4381c781cb)"><g clip-path="url(#ee6f61eaea)"><g clip-path="url(#9fb9550ae9)"><g clip-path="url(#03c4f4b498)"><path fill="#000000" d="M 176.925781 163.382812 L 156.007812 200.203125 C 155.59375 200.929688 155.839844 201.851562 156.558594 202.257812 C 157.277344 202.664062 158.195312 202.40625 158.605469 201.679688 L 179.527344 164.859375 C 179.9375 164.132812 179.691406 163.210938 178.972656 162.804688 C 178.253906 162.398438 177.339844 162.65625 176.925781 163.382812 Z M 176.925781 163.382812 " fill-opacity="1" fill-rule="nonzero"/></g></g></g></g><g clip-path="url(#c9627453bc)"><g clip-path="url(#000843bf2b)"><g clip-path="url(#fdb753b446)"><g clip-path="url(#8127e4b36c)"><path fill="#000000" d="M 179.441406 163.957031 L 197.292969 202.363281 C 197.644531 203.117188 198.539062 203.449219 199.289062 203.101562 C 200.035156 202.753906 200.355469 201.859375 200.003906 201.101562 L 182.152344 162.699219 C 181.796875 161.941406 180.90625 161.609375 180.15625 161.957031 C 179.410156 162.304688 179.085938 163.203125 179.441406 163.957031 Z M 179.441406 163.957031 " fill-opacity="1" fill-rule="nonzero"/></g></g></g></g><g clip-path="url(#dad59c407c)"><g clip-path="url(#7f47c14831)"><g clip-path="url(#f0436316c2)"><g clip-path="url(#101f7e1aee)"><path fill="#000000" d="M 140.886719 114.699219 L 175.378906 139.277344 C 176.058594 139.761719 176.996094 139.609375 177.476562 138.9375 C 177.957031 138.261719 177.792969 137.324219 177.113281 136.839844 L 142.625 112.261719 C 141.941406 111.777344 141.003906 111.929688 140.523438 112.601562 C 140.046875 113.273438 140.207031 114.214844 140.886719 114.699219 Z M 140.886719 114.699219 " fill-opacity="1" fill-rule="nonzero"/></g></g></g></g><g clip-path="url(#e7e2716c48)"><g clip-path="url(#7b3f2747b4)"><g clip-path="url(#a59ea0e44c)"><g clip-path="url(#21bc1edf7f)"><path fill="#000000" d="M 209.292969 106.214844 L 180.125 136.921875 C 179.550781 137.527344 179.566406 138.476562 180.167969 139.046875 C 180.765625 139.613281 181.71875 139.585938 182.292969 138.980469 L 211.460938 108.277344 C 212.039062 107.671875 212.019531 106.71875 211.417969 106.148438 C 210.820312 105.582031 209.871094 105.609375 209.292969 106.214844 Z M 209.292969 106.214844 " fill-opacity="1" fill-rule="nonzero"/></g></g></g></g><path fill="#000000" d="M 173.160156 94.601562 C 173.054688 95.175781 173.121094 95.820312 173.128906 96.410156 C 173.136719 97.03125 173.160156 97.636719 173.214844 98.25 C 173.265625 98.839844 174.261719 98.925781 174.382812 98.335938 C 174.527344 97.667969 174.597656 97.046875 174.582031 96.371094 C 174.558594 95.714844 174.535156 95 174.285156 94.386719 C 174.1875 94.152344 173.882812 94.019531 173.648438 94.066406 C 173.367188 94.121094 173.214844 94.34375 173.160156 94.601562 Z M 173.160156 94.601562 " fill-opacity="1" fill-rule="nonzero"/><g clip-path="url(#13c9eb668a)"><path fill="#000000" d="M 181.417969 94.402344 C 181.1875 94.863281 181.28125 95.546875 181.304688 96.050781 C 181.324219 96.640625 181.394531 97.183594 181.546875 97.753906 C 181.75 98.527344 182.722656 98.410156 182.875 97.675781 C 183.003906 97.0625 183.011719 96.503906 182.945312 95.882812 C 182.882812 95.324219 182.832031 94.65625 182.472656 94.195312 C 182.152344 93.789062 181.605469 94.011719 181.417969 94.402344 Z M 181.417969 94.402344 " fill-opacity="1" fill-rule="nonzero"/></g><g clip-path="url(#c5885b1a89)"><path fill="#000000" d="M 167.433594 104.128906 C 167.410156 105.285156 167.988281 106.371094 168.625 107.300781 C 169.257812 108.210938 170.0625 109.007812 170.964844 109.644531 C 172.691406 110.855469 174.800781 111.546875 176.898438 111.636719 C 179.023438 111.730469 181.203125 111.285156 183.074219 110.242188 C 184.933594 109.207031 186.507812 107.683594 187.652344 105.875 C 188.285156 104.878906 188.792969 103.789062 189.148438 102.664062 C 189.339844 102.082031 189.492188 101.476562 189.589844 100.871094 C 189.679688 100.273438 189.804688 99.589844 189.613281 99.007812 C 189.429688 98.457031 188.761719 98.378906 188.503906 98.925781 C 188.300781 99.359375 188.277344 99.84375 188.175781 100.320312 C 188.078125 100.785156 187.972656 101.253906 187.835938 101.714844 C 187.578125 102.59375 187.226562 103.453125 186.78125 104.25 C 185.875 105.867188 184.628906 107.316406 183.082031 108.34375 C 180.011719 110.363281 175.863281 110.640625 172.582031 108.941406 C 171.625 108.441406 170.738281 107.773438 170.007812 106.984375 C 169.179688 106.089844 168.710938 105.046875 168.140625 103.980469 C 167.972656 103.683594 167.441406 103.738281 167.433594 104.128906 Z M 167.433594 104.128906 " fill-opacity="1" fill-rule="nonzero"/></g></svg>
